<svg width="27" height="32" viewBox="0 0 27 32" fill="none" xmlns="http://www.w3.org/2000/svg">
<path d="M21.94 16.5999C21.9837 21.2583 26.0705 22.8085 26.1157 22.8283C26.0811 22.9375 25.4627 25.0373 23.9627 27.2062C22.6659 29.0814 21.32 30.9497 19.1998 30.9884C17.1167 31.0264 16.4468 29.7662 14.0651 29.7662C11.684 29.7662 10.9398 30.9497 8.96771 31.0264C6.92125 31.103 5.36286 28.9987 4.05542 27.1304C1.38355 23.3088 -0.658261 16.3313 2.08338 11.6214C3.44534 9.28238 5.87942 7.80135 8.52121 7.76336C10.5308 7.72547 12.4276 9.10096 13.6561 9.10096C14.8837 9.10096 17.1888 7.44683 19.612 7.68974C20.6263 7.73154 23.4739 8.09507 25.3024 10.7431C25.1549 10.8334 21.9046 12.7055 21.94 16.6V16.5999ZM18.0249 5.1614C19.1114 3.86022 19.8426 2.04894 19.6431 0.246582C18.077 0.308851 16.1834 1.27911 15.06 2.5795C14.0533 3.73118 13.1717 5.57437 13.4096 7.34099C15.1552 7.47464 16.9384 6.46336 18.025 5.1614" fill="white"/>
</svg>
